<svg height="496pt" viewBox="-56 0 496 496" width="496pt" xmlns="http://www.w3.org/2000/svg"><path d="m240 176c0 4.417969-3.582031 8-8 8s-8-3.582031-8-8 3.582031-8 8-8 8 3.582031 8 8zm0 0"/><path d="m160 176c0 4.417969-3.582031 8-8 8s-8-3.582031-8-8 3.582031-8 8-8 8 3.582031 8 8zm0 0"/><path d="m384 408h-16v-36.710938c0-24.632812-15.792969-46.113281-39.296875-53.449218l-88.703125-27.71875v-16.457032c17.679688-11.558593 30.910156-29.304687 36.710938-50.136718 19.816406-2.367188 35.289062-19.085938 35.289062-39.527344 0-8.871094-3-17-7.910156-23.648438l1.734375-8.671874c4.097656-20.496094 6.175781-41.480469 6.175781-62.382813 0-17.617187-10.648438-33.296875-26.785156-39.890625l-8.550782-12.832031c-15.273437-22.902344-40.816406-36.574219-68.335937-36.574219-43.671875 0-85.960937 12.808594-122.289063 37.023438-13.800781 9.199218-22.039062 24.59375-22.039062 41.175781 0 7.648437 1.808594 15.296875 5.222656 22.136719 7.050782 14.105468 10.777344 29.878906 10.777344 45.648437v14.015625h.207031c-5.078125 6.703125-8.207031 14.960938-8.207031 24 0 20.441406 15.472656 37.160156 35.289062 39.519531 5.789063 20.839844 19.03125 38.578125 36.710938 50.136719v16.457031l-88.695312 27.726563c-23.511719 7.335937-39.304688 28.816406-39.304688 53.449218v36.710938h-16v48h16v40h352v-40h16zm-104.335938-201.367188c.167969-2.199218.335938-4.394531.335938-6.632812v-38.527344c9.289062 3.3125 16 12.113282 16 22.527344 0 10.535156-6.871094 19.414062-16.335938 22.632812zm-184.753906-156.296874c33.699219-22.464844 72.921875-34.335938 113.417969-34.335938 22.160156 0 42.726563 11.007812 55.023437 29.449219l11.511719 17.269531 2.609375.867188c11.078125 3.703124 18.527344 14.03125 18.527344 25.710937 0 19.847656-1.976562 39.78125-5.863281 59.238281v.007813c-3.183594-1.640625-6.527344-3.007813-10.136719-3.742188v-20.121093l-30.167969-30.167969-4.984375 2.136719c-36.160156 15.496093-74.433594 23.351562-113.777344 23.351562h-27.070312v24.808594c-2.792969.566406-5.457031 1.464844-8 2.582031v-1.40625c0-18.230469-4.3125-36.496094-12.464844-52.808594-2.3125-4.625-3.535156-9.800781-3.535156-14.976562 0-11.222657 5.574219-21.640625 14.910156-27.863281zm-6.910156 133.664062c0-10.414062 6.710938-19.214844 16-22.527344v38.527344c0 2.238281.167969 4.433594.335938 6.632812-9.464844-3.21875-16.335938-12.097656-16.335938-22.632812zm32 16v-64h11.070312c39.707032 0 78.386719-7.585938 115.066407-22.542969l17.863281 17.855469v68.6875c0 39.703125-32.304688 72-72 72s-72-32.296875-72-72zm72 88c11.296875 0 22.0625-2.214844 32-6.113281v10.265625l-32 25.609375-32-25.609375v-10.265625c9.9375 3.898437 20.703125 6.113281 32 6.113281zm-160 83.289062c0-17.59375 11.28125-32.929687 28.070312-38.175781l90.257813-28.203125 41.671875 33.328125 41.671875-33.335937 90.257813 28.203125c16.789062 5.253906 28.070312 20.589843 28.070312 38.183593v36.710938h-56v-40h-16v112h-16v-80h-144v80h-16v-112h-16v40h-56zm136 44.710938h16v64h-16zm-16 64h-16v-64h16zm48-64h16v64h-16zm32 0h16v64h-16zm-216 8h72v16h-72zm16 32h56v24h-56zm320 24h-56v-24h56zm16-40h-72v-16h72zm0 0"/><path d="m232 224c0-13.230469-10.769531-24-24-24h-32c-13.230469 0-24 10.769531-24 24v24h80zm-16 8h-48v-8c0-4.414062 3.59375-8 8-8h32c4.40625 0 8 3.585938 8 8zm0 0"/></svg>