<?xml version="1.0" encoding="iso-8859-1"?>
<!-- Generator: Adobe Illustrator 19.0.0, SVG Export Plug-In . SVG Version: 6.00 Build 0)  -->
<svg version="1.1" id="Capa_1" xmlns="http://www.w3.org/2000/svg" xmlns:xlink="http://www.w3.org/1999/xlink" x="0px" y="0px"
	 viewBox="0 0 511.325 511.325" style="enable-background:new 0 0 511.325 511.325;" xml:space="preserve">
<g>
	<g>
		<path d="M264.199,246.792h-17.067c-4.713,0-8.533,3.82-8.533,8.533s3.82,8.533,8.533,8.533h17.067c4.713,0,8.533-3.82,8.533-8.533
			S268.912,246.792,264.199,246.792z"/>
	</g>
</g>
<g>
	<g>
		<path d="M272.733,280.925h-34.133c-4.713,0-8.533,3.821-8.533,8.533s3.82,8.533,8.533,8.533h34.133
			c4.713,0,8.533-3.82,8.533-8.533S277.445,280.925,272.733,280.925z"/>
	</g>
</g>
<g>
	<g>
		<path d="M230.066,187.058h-34.133c-4.713,0-8.533,3.82-8.533,8.533s3.82,8.533,8.533,8.533h8.533v8.533
			c0,4.713,3.821,8.533,8.533,8.533c4.713,0,8.533-3.82,8.533-8.533v-8.533h8.533c4.713,0,8.533-3.82,8.533-8.533
			S234.779,187.058,230.066,187.058z"/>
	</g>
</g>
<g>
	<g>
		<path d="M315.399,187.058h-34.133c-4.713,0-8.533,3.82-8.533,8.533s3.82,8.533,8.533,8.533h8.533v8.533
			c0,4.713,3.82,8.533,8.533,8.533s8.533-3.82,8.533-8.533v-8.533h8.533c4.713,0,8.533-3.82,8.533-8.533
			S320.112,187.058,315.399,187.058z"/>
	</g>
</g>
<g>
	<g>
		<path d="M461.491,477.942L450.133,442.4c-5.202-13.937-13.348-26.589-23.883-37.092c-3.093-3.049-6.37-5.904-9.815-8.549
			c11.244-6.65,20.329-16.405,26.165-28.092c1.994-4.267,0.151-9.343-4.116-11.337c-0.362-0.169-0.735-0.313-1.117-0.429
			c-47.008-14.392-32.133-76.917-28.825-88.826c0.017-0.05,0.3-0.867,0.317-0.925c0.12-0.547,0.183-1.104,0.188-1.664
			c5.831-21.157,8.776-43.006,8.754-64.952C417.799,89.958,345.066,0,255.666,0S93.533,89.958,93.533,200.533
			c-0.035,22.327,3.003,44.552,9.027,66.051c0.007,0.337,0.034,0.673,0.081,1.007c3.458,12.392,18.333,74.917-28.675,89.308
			c-4.504,1.377-7.04,6.145-5.663,10.649c0.117,0.382,0.26,0.755,0.429,1.117c5.836,11.687,14.921,21.442,26.165,28.092
			c-3.444,2.645-6.722,5.5-9.815,8.549c-10.625,10.613-18.822,23.404-24.025,37.492l-11.217,35.142
			c-4.298,13.47,3.138,27.874,16.608,32.172c2.517,0.803,5.142,1.212,7.784,1.211h362.867c14.139,0.001,25.602-11.46,25.603-25.599
			C462.703,483.084,462.294,480.458,461.491,477.942z M93.533,494.258h-19.3c-2.728,0.015-5.295-1.289-6.892-3.5l0,0
			c-1.621-2.195-2.081-5.039-1.233-7.633l11.075-34.742c3.746-9.924,9.288-19.073,16.35-26.989V494.258z M89.124,369.233
			L89.124,369.233c38.198-18.682,40.648-66.994,30.177-105.332c-0.007-0.319-0.033-0.636-0.077-0.952
			c-5.771-20.302-8.674-41.31-8.625-62.416c0-101.167,65.075-183.467,145.067-183.467s145.067,82.3,145.067,183.467
			c0.049,21.106-2.854,42.115-8.625,62.417c-0.044,0.316-0.07,0.634-0.077,0.953c-10.471,38.354-8.021,86.682,30.219,105.355
			c-5.723,8.412-14.624,14.131-24.654,15.839c-14.038-6.776-29.424-10.299-45.012-10.306h-23.319
			c-5.025-16.473-6.022-33.912-2.906-50.85c1.058-9.432,2.573-17.51,3.792-23.202c11.123-11.296,17.975-26.107,19.383-41.898
			c0-1.207-0.106-2.436-0.162-3.652c1.111,0.324,2.256,0.515,3.412,0.569c1.556-0.002,3.101-0.258,4.575-0.758
			c4.4-1.467,17.775-5.925,17.775-59.409c0-5.75,0-23.242-11.775-28.525c-1.69-0.735-3.503-1.149-5.345-1.22
			c0.014-0.67,0.053-1.314,0.053-2.022c0-0.695-0.104-1.368-0.123-2.059c5.657-11.01,8.623-23.204,8.656-35.582
			c0-50.758-49.766-92.05-110.933-92.05s-110.933,41.292-110.933,92.05c0.033,12.378,2.999,24.572,8.656,35.582
			c-0.019,0.691-0.123,1.364-0.123,2.059c0,0.742,0.033,1.346,0.047,2.021c-1.84,0.07-3.651,0.484-5.339,1.22
			c-11.775,5.283-11.775,22.775-11.775,28.525c0,53.483,13.375,57.941,17.775,59.408c1.474,0.5,3.019,0.756,4.575,0.758
			c1.154-0.054,2.297-0.245,3.406-0.568c-0.055,1.22-0.156,2.418-0.156,3.652c1.407,15.794,8.26,30.607,19.385,41.905
			c1.219,5.692,2.733,13.771,3.798,23.245c3.108,16.923,2.109,34.344-2.915,50.8h-23.319c-15.587,0.007-30.971,3.529-45.008,10.304
			C103.733,383.342,94.857,377.622,89.124,369.233z M201.941,322.025l-0.048-0.365c5.117,4.548,10.57,9.147,16.598,13.815
			c21.909,16.835,52.397,16.846,74.317,0.025c6.046-4.681,11.509-9.289,16.633-13.842l-0.042,0.317
			c-3.115,26.132-1.594,46.273,4.435,60.103c-14.688,16.875-35.803,26.784-58.169,27.297c-22.366-0.513-43.481-10.422-58.169-27.297
			C203.526,368.249,205.047,348.112,201.941,322.025z M282.324,322.025c-15.735,12.08-37.627,12.07-53.35-0.025
			c-12.389-9.302-23.806-19.833-34.075-31.433c-8.726-8.496-14.369-19.66-16.033-31.725c0-1.783,0.075-3.575,0.208-5.142
			c0.333-3.133,0.517-6.333,0.725-10.15c1.035-20.152-1.048-40.342-6.175-59.858v0c-0.292-1.292-0.675-2.583-1.025-3.767
			c-0.106-0.396-0.152-0.748-0.252-1.138c0.009-0.235,0.106-0.463,0.094-0.698c15.303-5.106,47.685-17.593,67.206-36.884
			c26.158,23.06,75.021,37.765,97.81,43.657c-4.953,19.376-6.937,39.392-5.883,59.363c0.167,3.142,0.35,6.342,0.667,9.325
			c0.15,1.717,0.225,3.508,0.225,5.292c-1.668,12.076-7.32,23.25-16.058,31.75C306.136,302.192,294.717,312.724,282.324,322.025z
			 M161.966,128.855c-0.039-0.893-0.167-1.773-0.167-2.672c0-41.35,42.108-74.983,93.867-74.983s93.867,33.633,93.867,74.983
			c0,0.899-0.127,1.779-0.167,2.672c-15.88-30.609-51.874-52.056-93.7-52.056S177.847,98.246,161.966,128.855z M162.827,233.961
			c-1.099,1.459-2.346,2.801-3.72,4.006c-2.125-3.7-5.842-15.658-5.842-42.375c-0.314-4.286,0.289-8.59,1.766-12.625
			c0.258,0.097,0.59,0.292,0.896,0.449c0.112,0.437,0.159,0.815,0.279,1.259c0.275,0.933,0.558,1.858,0.85,3.1
			C160.991,202.852,162.93,218.38,162.827,233.961z M354.358,187.459c0.208-0.925,0.492-1.85,0.858-3.1
			c0.089-0.33,0.125-0.624,0.208-0.951c0.284-0.161,0.576-0.309,0.875-0.441c1.479,4.035,2.081,8.339,1.767,12.625
			c0,26.717-3.717,38.675-5.842,42.375c-1.381-1.209-2.633-2.558-3.735-4.025C348.403,218.257,350.376,202.629,354.358,187.459z
			 M255.666,93.867c47.05,0,85.333,31.383,85.333,69.958c0,1.017,0.008,1.958-0.075,3.083c-0.019,0.388-0.104,0.806-0.132,1.198
			c-33.416-8.673-71.624-23.036-90.556-40.275c0.968-1.647,1.827-3.355,2.572-5.115c1.792-4.358-0.285-9.345-4.642-11.142
			c-4.358-1.781-9.337,0.293-11.142,4.642c-1.168,2.686-2.687,5.205-4.517,7.492c-14.002,18.269-45.612,31.219-61.981,36.978
			C172.55,123.573,209.908,93.867,255.666,93.867z M127.666,494.258h-17.067v-87.9c2.245-1.495,4.55-2.878,6.915-4.148
			c1.883-0.213,3.638-1.055,4.984-2.388c1.702-0.781,3.419-1.516,5.168-2.184V494.258z M161.799,494.258h-17.067V393.073
			c3.22-0.515,6.467-0.851,9.724-1.005v0c1.412,6.927,3.889,13.593,7.343,19.76V494.258z M195.933,494.258h-17.067v-61.121
			c5.244,4.633,10.965,8.697,17.067,12.122V494.258z M230.066,494.258h-17.067v-41.135c5.563,2.018,11.267,3.624,17.067,4.803
			V494.258z M264.199,494.258h-8.533h-8.533v-34.013c2.821,0.185,5.655,0.329,8.533,0.329c2.878,0,5.712-0.144,8.533-0.329V494.258z
			 M298.333,494.258h-17.067v-36.332c5.799-1.179,11.504-2.784,17.067-4.803V494.258z M332.466,494.258h-17.067v-48.999
			c6.102-3.425,11.823-7.489,17.067-12.122V494.258z M255.666,443.508c-41.302,0-75.91-22.063-83.671-51.65h11.306
			c17.983,21.453,44.376,34.066,72.365,34.583c27.988-0.517,54.381-13.131,72.365-34.583h11.307
			C331.576,421.446,296.968,443.508,255.666,443.508z M366.599,494.258h-17.067v-82.43c3.454-6.168,5.931-12.834,7.343-19.76
			c3.258,0.154,6.504,0.49,9.724,1.005V494.258z M400.733,494.258h-17.067v-96.62c1.749,0.668,3.466,1.403,5.168,2.184l0,0
			c1.346,1.333,3.102,2.175,4.984,2.388c2.362,1.273,4.667,2.656,6.915,4.148V494.258z M439.706,493.851
			c-0.843,0.27-1.722,0.407-2.607,0.407h-19.3v-72.866c6.982,7.799,12.475,16.812,16.208,26.591l11.217,35.142
			C446.662,487.61,444.192,492.413,439.706,493.851z"/>
	</g>
</g>
<g>
</g>
<g>
</g>
<g>
</g>
<g>
</g>
<g>
</g>
<g>
</g>
<g>
</g>
<g>
</g>
<g>
</g>
<g>
</g>
<g>
</g>
<g>
</g>
<g>
</g>
<g>
</g>
<g>
</g>
</svg>
