<svg height="496pt" viewBox="-48 0 496 496" width="496pt" xmlns="http://www.w3.org/2000/svg"><path d="m362.640625 365.152344-98.640625-34.816406v-26.984376c6.0625-5.449218 11.480469-11.589843 16-18.398437v14.863281l10.976562-4.382812c27.351563-10.945313 45.023438-37.050782 45.023438-66.511719v-96.921875c0-72.785156-59.214844-132-132-132s-132 59.214844-132 132v72c0 19.558594 14.136719 35.824219 32.71875 39.265625 2.800781 23.773437 14.328125 44.871094 31.28125 60.085937v26.984376l-98.640625 34.816406c-22.34375 7.886718-37.359375 29.105468-37.359375 52.808594v78.039062h400v-78.039062c0-23.703126-15.015625-44.921876-37.359375-52.808594zm-92.273437-15.59375-18.984376 75.945312-39.613281-33.953125 46.328125-46.328125zm-66.367188-333.558594c63.960938 0 116 52.039062 116 116v96.921875c0 18.652344-9.121094 35.574219-24 45.789063v-112.144532c0-32.292968-26.273438-58.566406-58.566406-58.566406-10.175782 0-20.226563 2.664062-29.058594 7.71875l-25.894531 14.800781c-10.863281 6.199219-23.214844 9.480469-35.726563 9.480469h-18.753906c-13.230469 0-24 10.769531-24 24v4.808594c-5.945312 1.214844-11.328125 3.855468-16 7.390625v-40.199219c0-63.960938 52.039062-116 116-116zm-116 188c0-10.414062 6.710938-19.214844 16-22.527344v45.046875c-9.289062-3.304687-16-12.105469-16-22.519531zm32 28v-72c0-4.40625 3.59375-8 8-8h18.753906c15.285156 0 30.382813-4.007812 43.660156-11.59375l25.898438-14.796875c6.414062-3.664063 13.71875-5.609375 21.121094-5.609375 23.46875 0 42.566406 19.097656 42.566406 42.566406v69.433594c0 44.113281-35.886719 80-80 80s-80-35.886719-80-80zm80 96c17.496094 0 33.855469-4.777344 48-12.992188v17.679688l-48 48-48-48v-17.679688c14.144531 8.214844 30.503906 12.992188 48 12.992188zm-58.089844 17.222656 46.328125 46.328125-39.613281 33.953125-18.984375-75.945312zm242.089844 134.777344h-56v-56h-16v56h-224v-56h-16v56h-56v-62.039062c0-16.929688 10.71875-32.089844 26.6875-37.722657l71.792969-25.335937 24.894531 99.59375 60.625-51.960938 60.625 51.96875 24.894531-99.59375 71.792969 25.335938c15.96875 5.625 26.6875 20.785156 26.6875 37.714844zm0 0"/><path d="m256 184c0 4.417969-3.582031 8-8 8s-8-3.582031-8-8 3.582031-8 8-8 8 3.582031 8 8zm0 0"/><path d="m160 184c0 4.417969-3.582031 8-8 8s-8-3.582031-8-8 3.582031-8 8-8 8 3.582031 8 8zm0 0"/><path d="m200 280c22.054688 0 40-17.945312 40-40h-16c0 13.230469-10.769531 24-24 24s-24-10.769531-24-24h-16c0 22.054688 17.945312 40 40 40zm0 0"/></svg>