<?xml version="1.0" encoding="iso-8859-1"?>
<!-- Generator: Adobe Illustrator 19.0.0, SVG Export Plug-In . SVG Version: 6.00 Build 0)  -->
<svg version="1.1" id="Capa_1" xmlns="http://www.w3.org/2000/svg" xmlns:xlink="http://www.w3.org/1999/xlink" x="0px" y="0px"
	 viewBox="0 0 511.574 511.574" style="enable-background:new 0 0 511.574 511.574;" xml:space="preserve">
<g>
	<g>
		<path d="M264.321,246.589h-17.067c-4.713,0-8.533,3.82-8.533,8.533s3.82,8.533,8.533,8.533h17.067c4.713,0,8.533-3.82,8.533-8.533
			S269.033,246.589,264.321,246.589z"/>
	</g>
</g>
<g>
	<g>
		<path d="M272.854,280.722h-34.133c-4.713,0-8.533,3.821-8.533,8.533s3.82,8.533,8.533,8.533h34.133
			c4.713,0,8.533-3.82,8.533-8.533S277.567,280.722,272.854,280.722z"/>
	</g>
</g>
<g>
	<g>
		<path d="M230.187,186.855h-34.133c-4.713,0-8.533,3.82-8.533,8.533s3.82,8.533,8.533,8.533h8.533v8.533
			c0,4.713,3.821,8.533,8.533,8.533c4.713,0,8.533-3.82,8.533-8.533v-8.533h8.533c4.713,0,8.533-3.82,8.533-8.533
			S234.9,186.855,230.187,186.855z"/>
	</g>
</g>
<g>
	<g>
		<path d="M315.521,186.855h-34.133c-4.713,0-8.533,3.82-8.533,8.533s3.82,8.533,8.533,8.533h8.533v8.533
			c0,4.713,3.82,8.533,8.533,8.533s8.533-3.82,8.533-8.533v-8.533h8.533c4.713,0,8.533-3.82,8.533-8.533
			S320.233,186.855,315.521,186.855z"/>
	</g>
</g>
<g>
	<g>
		<path d="M462.786,484.281l-0.026-0.311c-0.14-2.113-0.519-4.204-1.131-6.232l-11.392-35.541
			c-15.19-40.671-54.057-67.619-97.473-67.582l-27.639-27.639c-0.019-7.755,0.432-15.504,1.35-23.204
			c1.061-9.046,2.584-18.032,4.563-26.923c10.563-11.565,17.077-26.253,18.558-41.846c1.078,0.311,2.188,0.496,3.308,0.552
			c1.557-0.003,3.104-0.259,4.579-0.758c4.396-1.466,17.771-5.925,17.771-59.408c0.748-9.114-1.892-18.184-7.415-25.472
			c10.381-16.689,15.904-35.941,15.949-55.595c0-68.45-7.067-100.55-24.387-110.8c-15.108-8.95-32.808,0.783-51.554,11.083
			c-15.908,8.742-33.942,18.65-52.058,18.65c-54.95,0-128,8.4-128,81.067c-0.024,4.682,0.308,9.36,0.992,13.992
			c1.995,14.773,7.083,28.959,14.932,41.633c-5.503,7.286-8.133,16.342-7.39,25.442c0,53.483,13.375,57.941,17.771,59.408
			c1.475,0.499,3.022,0.755,4.579,0.758c1.12-0.056,2.231-0.241,3.308-0.552c1.482,15.594,7.996,30.282,18.559,41.849
			c1.981,8.901,3.505,17.897,4.566,26.954c0.916,7.689,1.365,15.427,1.346,23.17l-27.64,27.64
			c-27.608-0.042-54.091,10.933-73.577,30.49c-10.599,10.628-18.792,23.407-24.025,37.475l-11.313,35.308
			c-0.587,1.981-0.951,4.021-1.084,6.083l-0.027,0.323c-0.023,0.413-0.102,0.849-0.102,1.252c0,0.533,0.029,1.033,0.087,1.708
			l0.046,0.867c0.031,0.304,0.133,0.582,0.174,0.883c0.133,0.978,0.324,1.947,0.572,2.902c0.152,0.592,0.311,1.174,0.503,1.748
			c3.165,10.748,13.102,18.073,24.305,17.917h362.833c11.202,0.156,21.137-7.166,24.303-17.912c0.194-0.58,0.354-1.167,0.507-1.766
			c0.246-0.948,0.435-1.909,0.568-2.88c0.042-0.304,0.145-0.585,0.176-0.893l0.062-1.05c0.042-0.492,0.071-0.992,0.071-1.525
			C462.891,485.141,462.81,484.698,462.786,484.281z M358.187,195.389c0,26.717-3.717,38.675-5.842,42.375h0
			c-1.358-1.193-2.591-2.519-3.682-3.96c-0.507-16.59,1.129-33.176,4.867-49.347c0.383-0.307,0.785-0.588,1.205-0.843
			c0.622-0.098,1.232-0.265,1.818-0.497C357.901,187.059,358.456,191.23,358.187,195.389z M145.675,125.914
			c-0.567-3.837-0.842-7.713-0.821-11.592c0-29.8,12.608-64,110.933-64c22.496,0,42.567-11.025,60.275-20.758
			c14.367-7.892,27.921-15.333,34.65-11.35c7.3,4.317,16.008,24.5,16.008,96.108c-0.027,15.324-4.031,30.379-11.62,43.693
			l-3.924-0.12l-36.584-46.723c-7.291-10.305-21.555-12.748-31.86-5.456c-0.34,0.24-0.673,0.49-0.999,0.748
			c-15.359,11.728-36.675,11.697-52-0.075c-9.901-7.789-24.241-6.076-32.03,3.825c-0.248,0.316-0.488,0.638-0.72,0.967
			l-38.84,49.597C151.598,150.154,147.351,138.278,145.675,125.914z M162.917,233.796c-1.092,1.444-2.328,2.773-3.688,3.968
			c-2.125-3.7-5.842-15.658-5.842-42.375c-0.27-4.162,0.286-8.337,1.634-12.284c0.482,0.155,0.978,0.267,1.48,0.334
			c0.56,0.315,1.096,0.673,1.602,1.07C161.811,200.664,163.428,217.228,162.917,233.796z M178.987,254.439
			c0-1.892,0.075-3.783,0.217-5.508c2.513-25.474,0.401-51.193-6.233-75.917l-0.083-0.275c-0.1-0.433-0.217-0.825-0.325-1.2
			c-0.096-0.379-0.174-0.782-0.268-1.161l38.122-48.673c1.787-2.919,5.602-3.836,8.521-2.048c0.18,0.11,0.354,0.229,0.521,0.357
			c21.492,16.394,51.3,16.364,72.758-0.075c2.735-2.027,6.595-1.453,8.622,1.282c0.114,0.154,0.221,0.313,0.32,0.476l38.08,48.627
			c-0.165,0.731-0.246,1.383-0.434,2.14l-0.4,1.483c-0.146,0.525-0.292,1.058-0.333,1.275c-6.193,24.016-8.125,48.933-5.708,73.617
			c0.154,1.817,0.225,3.708,0.225,5.6c0,16.525-17.846,40.083-50.275,66.35c-15.471,12.537-37.607,12.53-53.071-0.017
			C196.833,294.522,178.987,270.964,178.987,254.439z M255.787,389.397l-52.318-44.839c-0.066-7.587-0.537-15.166-1.411-22.703
			c-0.091-0.805-0.25-1.641-0.349-2.448c5.154,4.785,10.62,9.633,16.77,14.615c21.743,17.616,52.845,17.623,74.596,0.017
			c6.158-4.989,11.631-9.843,16.79-14.633c-0.098,0.796-0.255,1.623-0.344,2.416c-0.877,7.548-1.349,15.138-1.415,22.736
			L255.787,389.397z M272.854,421.972c0,6.942-7.817,12.8-17.067,12.8s-17.067-5.858-17.067-12.8
			c0-6.938,7.808-12.791,17.051-12.799l0.032,0C265.046,409.18,272.854,415.034,272.854,421.972z M74.371,494.08
			c-3.145,0.03-6.044-1.698-7.513-4.48c-0.16-0.321-0.299-0.652-0.418-0.991v0c-0.748-1.653-0.835-3.53-0.245-5.245l11.129-34.75
			c1.06-2.794,2.265-5.53,3.608-8.2l10.757,53.666H74.371z M109.094,494.08l-14.677-73.226c0.973-1.075,1.859-2.236,2.882-3.257
			c0.699-0.699,2.741-2.361,16.261-12.204l20.467,88.688H109.094z M151.546,494.08l-22.312-96.683
			c7.829-2.82,16.019-4.514,24.324-5.032c-0.041,0.552-0.026,1.107,0.045,1.657l23.091,100.058H151.546z M172.563,384.997
			l23.937-23.933l41.481,35.549c-2.608,1.397-5.021,3.132-7.175,5.16l-28.822-16.859c-0.833-0.484-1.742-0.825-2.688-1.008
			c-9.071-1.749-17.888,4.033-19.901,13.049L172.563,384.997z M222.27,427.301L222.27,427.301l-26.216,7.471v-33.558l26.226,15.345
			C221.449,420.091,221.445,423.767,222.27,427.301z M194.212,494.08l-11.145-48.296c1.984,2.36,4.578,4.13,7.5,5.116l24.674,43.18
			H194.212z M234.896,494.08l-25.872-45.277l22.109-6.285c14.087,12.427,35.221,12.427,49.309,0.001l22.109,6.286l-25.871,45.275
			H234.896z M289.295,416.56l26.226-15.338l0.029,33.533l-26.244-7.461C290.129,423.763,290.125,420.09,289.295,416.56z
			 M317.362,494.08h-21.029l24.674-43.179c1.72-0.587,3.336-1.444,4.788-2.538c0.994-0.76,1.903-1.624,2.712-2.579L317.362,494.08z
			 M312.279,383.905c-0.946,0.184-1.854,0.525-2.688,1.008l-28.822,16.859c-2.154-2.028-4.567-3.763-7.175-5.16l41.481-35.549
			l23.938,23.933l-6.833,11.958C330.167,387.938,321.35,382.157,312.279,383.905z M334.88,494.08l23.091-100.058
			c0.071-0.549,0.087-1.104,0.045-1.657c8.305,0.518,16.495,2.212,24.324,5.032l-22.311,96.683H334.88z M402.48,494.08h-24.934
			l20.467-88.688c13.52,9.843,15.563,11.506,16.266,12.213c1.021,1.019,1.907,2.178,2.878,3.251L402.48,494.08z M445.143,488.585
			L445.143,488.585c-1.154,3.375-4.374,5.603-7.939,5.495h-17.319l10.759-53.68c1.288,2.544,2.447,5.152,3.472,7.814l11.254,35.133
			C445.97,485.057,445.888,486.933,445.143,488.585z"/>
	</g>
</g>
<g>
</g>
<g>
</g>
<g>
</g>
<g>
</g>
<g>
</g>
<g>
</g>
<g>
</g>
<g>
</g>
<g>
</g>
<g>
</g>
<g>
</g>
<g>
</g>
<g>
</g>
<g>
</g>
<g>
</g>
</svg>
