<svg xmlns="http://www.w3.org/2000/svg" height="511pt" version="1.1" viewBox="-3 1 511 511.99995" width="511pt">
<g id="surface1">
<path d="M 318.191406 486.773438 L 341.460938 427.457031 L 369.726562 438.546875 L 346.453125 497.863281 C 344.347656 503.230469 338.289062 505.875 332.917969 503.769531 L 324.097656 500.308594 C 318.730469 498.203125 316.082031 492.140625 318.191406 486.773438 Z M 318.191406 486.773438 " style=" stroke:none;fill-rule:nonzero;fill:rgb(20.392157%,29.019608%,36.470588%);fill-opacity:1;" />
<path d="M 419.207031 438.546875 L 447.472656 427.457031 L 470.746094 486.773438 C 472.851562 492.140625 470.207031 498.203125 464.835938 500.308594 L 456.015625 503.769531 C 450.648438 505.875 444.585938 503.230469 442.480469 497.863281 Z M 419.207031 438.546875 " style=" stroke:none;fill-rule:nonzero;fill:rgb(20.392157%,29.019608%,36.470588%);fill-opacity:1;" />
<path d="M 421.144531 462.285156 L 18.148438 462.285156 C 12.542969 462.285156 8 457.738281 8 452.136719 L 8 55.171875 C 8 49.566406 12.542969 45.019531 18.148438 45.019531 L 421.144531 45.019531 C 426.75 45.019531 431.292969 49.566406 431.292969 55.171875 L 431.292969 452.136719 C 431.296875 457.738281 426.75 462.285156 421.144531 462.285156 Z M 421.144531 462.285156 " style=" stroke:none;fill-rule:nonzero;fill:rgb(80.392157%,83.921569%,87.45098%);fill-opacity:1;" />
<path d="M 421.144531 45.019531 L 379.457031 45.019531 L 379.457031 462.285156 L 421.144531 462.285156 C 426.75 462.285156 431.296875 457.738281 431.296875 452.136719 L 431.296875 55.171875 C 431.296875 49.566406 426.75 45.019531 421.144531 45.019531 Z M 421.144531 45.019531 " style=" stroke:none;fill-rule:nonzero;fill:rgb(68.235294%,73.72549%,76.862745%);fill-opacity:1;" />
<path d="M 59.835938 401.460938 L 59.835938 129.351562 L 379.457031 129.351562 L 379.457031 401.460938 C 379.457031 406.402344 375.453125 410.40625 370.511719 410.40625 L 68.785156 410.40625 C 63.84375 410.40625 59.835938 406.402344 59.835938 401.460938 Z M 59.835938 401.460938 " style=" stroke:none;fill-rule:nonzero;fill:rgb(94.901961%,94.901961%,94.901961%);fill-opacity:1;" />
<path d="M 327.621094 129.351562 L 327.621094 401.460938 C 327.621094 406.402344 323.617188 410.40625 318.675781 410.40625 L 370.511719 410.40625 C 375.453125 410.40625 379.457031 406.402344 379.457031 401.460938 L 379.457031 129.351562 Z M 327.621094 129.351562 " style=" stroke:none;fill-rule:nonzero;fill:rgb(85.882353%,85.098039%,81.960784%);fill-opacity:1;" />
<path d="M 421.144531 45.019531 L 18.148438 45.019531 C 12.542969 45.019531 8 49.566406 8 55.171875 L 8 129.347656 L 431.296875 129.347656 L 431.296875 55.171875 C 431.296875 49.566406 426.75 45.019531 421.144531 45.019531 Z M 421.144531 45.019531 " style=" stroke:none;fill-rule:nonzero;fill:rgb(93.333333%,33.72549%,27.45098%);fill-opacity:1;" />
<path d="M 421.144531 45.019531 L 379.457031 45.019531 L 379.457031 129.347656 L 431.296875 129.347656 L 431.296875 55.171875 C 431.296875 49.566406 426.75 45.019531 421.144531 45.019531 Z M 421.144531 45.019531 " style=" stroke:none;fill-rule:nonzero;fill:rgb(84.705882%,24.313725%,22.745098%);fill-opacity:1;" />
<path d="M 79.4375 82.542969 C 67.765625 82.542969 58.304688 73.082031 58.304688 61.410156 L 58.304688 28.632812 C 58.304688 16.960938 67.769531 7.5 79.4375 7.5 C 91.109375 7.5 100.570312 16.960938 100.570312 28.632812 L 100.570312 61.410156 C 100.570312 73.082031 91.109375 82.542969 79.4375 82.542969 Z M 79.4375 82.542969 " style=" stroke:none;fill-rule:nonzero;fill:rgb(96.078431%,70.980392%,33.72549%);fill-opacity:1;" />
<path d="M 172.910156 82.542969 C 161.238281 82.542969 151.777344 73.082031 151.777344 61.410156 L 151.777344 28.632812 C 151.777344 16.960938 161.242188 7.5 172.910156 7.5 C 184.582031 7.5 194.042969 16.960938 194.042969 28.632812 L 194.042969 61.410156 C 194.042969 73.082031 184.582031 82.542969 172.910156 82.542969 Z M 172.910156 82.542969 " style=" stroke:none;fill-rule:nonzero;fill:rgb(96.078431%,70.980392%,33.72549%);fill-opacity:1;" />
<path d="M 266.382812 82.542969 C 254.710938 82.542969 245.25 73.082031 245.25 61.410156 L 245.25 28.632812 C 245.25 16.960938 254.714844 7.5 266.382812 7.5 C 278.054688 7.5 287.515625 16.960938 287.515625 28.632812 L 287.515625 61.410156 C 287.515625 73.082031 278.054688 82.542969 266.382812 82.542969 Z M 266.382812 82.542969 " style=" stroke:none;fill-rule:nonzero;fill:rgb(96.078431%,70.980392%,33.72549%);fill-opacity:1;" />
<path d="M 359.855469 82.542969 C 348.183594 82.542969 338.722656 73.082031 338.722656 61.410156 L 338.722656 28.632812 C 338.722656 16.960938 348.183594 7.5 359.855469 7.5 C 371.527344 7.5 380.988281 16.960938 380.988281 28.632812 L 380.988281 61.410156 C 380.988281 73.082031 371.527344 82.542969 359.855469 82.542969 Z M 359.855469 82.542969 " style=" stroke:none;fill-rule:nonzero;fill:rgb(96.078431%,70.980392%,33.72549%);fill-opacity:1;" />
<path d="M 185.484375 305.90625 L 185.484375 301.457031 C 185.484375 281.097656 173.082031 272.90625 154.125 272.90625 C 149.210938 272.90625 147.339844 268.929688 147.339844 264.71875 C 147.339844 260.738281 149.210938 256.527344 154.125 256.527344 C 170.742188 256.527344 181.273438 250.910156 181.273438 228.445312 C 181.273438 209.488281 172.613281 201.0625 155.0625 201.0625 C 133.066406 201.0625 127.683594 213.699219 127.683594 223.53125 C 127.683594 228.679688 125.109375 232.1875 118.320312 232.1875 C 109.894531 232.1875 108.023438 229.847656 108.023438 222.125 C 108.023438 208.085938 117.621094 183.511719 155.53125 183.511719 C 181.742188 183.511719 200.230469 194.511719 200.230469 224.933594 C 200.230469 245.292969 192.273438 259.101562 181.273438 264.25 C 195.082031 269.867188 205.144531 281.101562 205.144531 301.460938 L 205.144531 305.90625 C 205.144531 342.414062 182.210938 355.984375 154.125 355.984375 C 119.492188 355.984375 104.28125 333.988281 104.28125 316.203125 C 104.28125 308.949219 106.855469 307.074219 113.40625 307.074219 C 121.363281 307.074219 123.46875 309.882812 123.46875 314.796875 C 123.46875 324.863281 131.425781 338.199219 154.125 338.199219 C 174.71875 338.199219 185.484375 328.371094 185.484375 305.90625 Z M 185.484375 305.90625 " style=" stroke:none;fill-rule:nonzero;fill:rgb(0%,0%,0%);fill-opacity:1;" />
<path d="M 497.585938 382.839844 C 497.585938 439.792969 451.417969 485.960938 394.46875 485.960938 C 337.515625 485.960938 291.347656 439.792969 291.347656 382.839844 C 291.347656 325.890625 337.515625 279.722656 394.46875 279.722656 C 451.417969 279.722656 497.585938 325.890625 497.585938 382.839844 Z M 497.585938 382.839844 " style=" stroke:none;fill-rule:nonzero;fill:rgb(52.941176%,85.882353%,99.215686%);fill-opacity:1;" />
<path d="M 394.46875 279.722656 C 385.515625 279.722656 376.832031 280.863281 368.550781 283.007812 C 412.953125 294.503906 445.75 334.839844 445.75 382.839844 C 445.75 430.839844 412.953125 471.175781 368.550781 482.671875 C 376.832031 484.816406 385.515625 485.960938 394.46875 485.960938 C 451.417969 485.960938 497.585938 439.792969 497.585938 382.839844 C 497.585938 325.890625 451.417969 279.722656 394.46875 279.722656 Z M 394.46875 279.722656 " style=" stroke:none;fill-rule:nonzero;fill:rgb(34.901961%,76.078431%,91.372549%);fill-opacity:1;" />
<path d="M 469.503906 382.839844 C 469.503906 424.28125 435.910156 457.875 394.46875 457.875 C 353.027344 457.875 319.429688 424.28125 319.429688 382.839844 C 319.429688 341.398438 353.027344 307.804688 394.46875 307.804688 C 435.910156 307.804688 469.503906 341.398438 469.503906 382.839844 Z M 469.503906 382.839844 " style=" stroke:none;fill-rule:nonzero;fill:rgb(94.901961%,94.901961%,94.901961%);fill-opacity:1;" />
<path d="M 394.46875 307.804688 C 385.246094 307.804688 376.417969 309.476562 368.261719 312.519531 C 396.777344 323.152344 417.089844 350.621094 417.089844 382.839844 C 417.089844 415.0625 396.777344 442.53125 368.261719 453.164062 C 376.417969 456.203125 385.246094 457.875 394.46875 457.875 C 435.910156 457.875 469.503906 424.28125 469.503906 382.839844 C 469.503906 341.398438 435.90625 307.804688 394.46875 307.804688 Z M 394.46875 307.804688 " style=" stroke:none;fill-rule:nonzero;fill:rgb(85.882353%,85.098039%,81.960784%);fill-opacity:1;" />
<path d="M 401.96875 379.734375 L 401.96875 337.433594 C 401.96875 333.292969 398.609375 329.933594 394.46875 329.933594 C 390.324219 329.933594 386.96875 333.292969 386.96875 337.433594 L 386.96875 382.839844 C 386.96875 384.828125 387.757812 386.734375 389.164062 388.144531 L 407.914062 406.894531 C 409.378906 408.359375 411.300781 409.089844 413.21875 409.089844 C 415.136719 409.089844 417.058594 408.359375 418.519531 406.894531 C 421.449219 403.964844 421.449219 399.21875 418.519531 396.289062 Z M 401.96875 379.734375 " style=" stroke:none;fill-rule:nonzero;fill:rgb(0%,0%,0%);fill-opacity:1;" />
<path d="M 394.46875 300.304688 C 348.957031 300.304688 311.933594 337.332031 311.933594 382.839844 C 311.933594 428.351562 348.957031 465.375 394.46875 465.375 C 439.976562 465.375 477.003906 428.351562 477.003906 382.839844 C 477.003906 337.332031 439.976562 300.304688 394.46875 300.304688 Z M 394.46875 450.375 C 357.226562 450.375 326.929688 420.082031 326.929688 382.839844 C 326.929688 345.601562 357.226562 315.304688 394.46875 315.304688 C 431.707031 315.304688 462.003906 345.601562 462.003906 382.839844 C 462.003906 420.082031 431.707031 450.375 394.46875 450.375 Z M 394.46875 450.375 " style=" stroke:none;fill-rule:nonzero;fill:rgb(0%,0%,0%);fill-opacity:1;" />
<path d="M 469.78125 463.78125 C 491.484375 443.570312 505.085938 414.765625 505.085938 382.839844 C 505.085938 321.84375 455.460938 272.222656 394.46875 272.222656 C 333.472656 272.222656 283.847656 321.84375 283.847656 382.839844 C 283.847656 414.765625 297.449219 443.570312 319.15625 463.78125 L 311.207031 484.035156 C 307.597656 493.242188 312.148438 503.675781 321.359375 507.289062 L 330.179688 510.75 C 332.304688 511.585938 334.523438 512 336.738281 512 C 339.175781 512 341.609375 511.496094 343.910156 510.492188 C 348.304688 508.574219 351.6875 505.0625 353.4375 500.601562 L 358.585938 487.480469 C 369.84375 491.351562 381.914062 493.457031 394.46875 493.457031 C 407.023438 493.457031 419.09375 491.351562 430.351562 487.480469 L 435.496094 500.601562 C 437.246094 505.0625 440.632812 508.574219 445.023438 510.492188 C 447.324219 511.496094 449.757812 512 452.195312 512 C 454.410156 512 456.628906 511.585938 458.753906 510.75 L 467.578125 507.289062 C 476.785156 503.675781 481.339844 493.242188 477.726562 484.03125 Z M 339.472656 495.121094 C 339.085938 496.109375 338.328125 496.5625 337.910156 496.746094 C 337.492188 496.925781 336.644531 497.175781 335.65625 496.789062 L 326.835938 493.328125 C 325.324219 492.734375 324.578125 491.019531 325.171875 489.511719 L 331.390625 473.660156 C 335.640625 476.621094 340.105469 479.292969 344.757812 481.640625 Z M 462.097656 493.328125 L 453.277344 496.789062 C 452.289062 497.175781 451.441406 496.925781 451.023438 496.746094 C 450.605469 496.5625 449.847656 496.109375 449.460938 495.121094 L 444.171875 481.644531 C 448.828125 479.292969 453.292969 476.621094 457.542969 473.660156 L 463.761719 489.511719 C 464.355469 491.019531 463.609375 492.734375 462.097656 493.328125 Z M 394.46875 478.460938 C 341.742188 478.460938 298.847656 435.5625 298.847656 382.839844 C 298.847656 330.117188 341.742188 287.222656 394.46875 287.222656 C 447.191406 287.222656 490.085938 330.117188 490.085938 382.839844 C 490.085938 435.5625 447.191406 478.460938 394.46875 478.460938 Z M 394.46875 478.460938 " style=" stroke:none;fill-rule:nonzero;fill:rgb(0%,0%,0%);fill-opacity:1;" />
<path d="M 283.390625 454.785156 L 18.148438 454.785156 C 16.6875 454.785156 15.5 453.597656 15.5 452.136719 L 15.5 136.851562 L 52.335938 136.851562 L 52.335938 401.460938 C 52.335938 410.527344 59.714844 417.90625 68.78125 417.90625 L 260.0625 417.90625 C 264.207031 417.90625 267.5625 414.550781 267.5625 410.40625 C 267.5625 406.261719 264.207031 402.90625 260.0625 402.90625 L 68.785156 402.90625 C 67.984375 402.90625 67.335938 402.257812 67.335938 401.460938 L 67.335938 136.851562 L 371.957031 136.851562 L 371.957031 245.792969 C 371.957031 249.933594 375.316406 253.292969 379.457031 253.292969 C 383.601562 253.292969 386.957031 249.933594 386.957031 245.792969 L 386.957031 136.851562 L 423.796875 136.851562 L 423.796875 250.429688 C 423.796875 254.570312 427.152344 257.929688 431.296875 257.929688 C 435.4375 257.929688 438.796875 254.570312 438.796875 250.429688 L 438.796875 55.171875 C 438.796875 45.4375 430.878906 37.519531 421.144531 37.519531 L 388.488281 37.519531 L 388.488281 28.632812 C 388.488281 12.84375 375.644531 0 359.855469 0 C 344.066406 0 331.222656 12.84375 331.222656 28.632812 L 331.222656 37.519531 L 295.015625 37.519531 L 295.015625 28.632812 C 295.015625 12.84375 282.171875 0 266.382812 0 C 250.59375 0 237.75 12.84375 237.75 28.632812 L 237.75 37.519531 L 201.542969 37.519531 L 201.542969 28.632812 C 201.542969 12.84375 188.699219 0 172.910156 0 C 157.125 0 144.277344 12.84375 144.277344 28.632812 L 144.277344 37.519531 L 108.070312 37.519531 L 108.070312 28.632812 C 108.070312 12.84375 95.226562 0 79.4375 0 C 63.648438 0 50.804688 12.84375 50.804688 28.632812 L 50.804688 37.519531 L 18.148438 37.519531 C 8.417969 37.519531 0.5 45.4375 0.5 55.171875 L 0.5 452.136719 C 0.5 461.867188 8.417969 469.785156 18.148438 469.785156 L 283.390625 469.785156 C 287.53125 469.785156 290.890625 466.425781 290.890625 462.285156 C 290.890625 458.140625 287.535156 454.785156 283.390625 454.785156 Z M 346.222656 28.632812 C 346.222656 21.113281 352.339844 15 359.855469 15 C 367.371094 15 373.488281 21.113281 373.488281 28.632812 L 373.488281 61.410156 C 373.488281 68.929688 367.371094 75.042969 359.855469 75.042969 C 352.339844 75.042969 346.222656 68.929688 346.222656 61.410156 Z M 252.75 28.632812 C 252.75 21.113281 258.867188 15 266.382812 15 C 273.898438 15 280.015625 21.113281 280.015625 28.632812 L 280.015625 61.410156 C 280.015625 68.929688 273.898438 75.042969 266.382812 75.042969 C 258.867188 75.042969 252.75 68.929688 252.75 61.410156 Z M 159.277344 28.632812 C 159.277344 21.113281 165.394531 15 172.910156 15 C 180.425781 15 186.542969 21.113281 186.542969 28.632812 L 186.542969 61.410156 C 186.542969 68.929688 180.425781 75.042969 172.910156 75.042969 C 165.394531 75.042969 159.277344 68.929688 159.277344 61.410156 Z M 65.804688 28.632812 C 65.804688 21.113281 71.921875 15 79.4375 15 C 86.957031 15 93.070312 21.113281 93.070312 28.632812 L 93.070312 61.410156 C 93.070312 68.929688 86.957031 75.042969 79.4375 75.042969 C 71.921875 75.042969 65.804688 68.929688 65.804688 61.410156 Z M 15.5 55.171875 C 15.5 53.710938 16.6875 52.519531 18.148438 52.519531 L 50.804688 52.519531 L 50.804688 61.410156 C 50.804688 77.199219 63.648438 90.042969 79.4375 90.042969 C 95.226562 90.042969 108.070312 77.199219 108.070312 61.410156 L 108.070312 52.519531 L 144.277344 52.519531 L 144.277344 61.410156 C 144.277344 77.199219 157.121094 90.042969 172.910156 90.042969 C 188.699219 90.042969 201.542969 77.199219 201.542969 61.410156 L 201.542969 52.519531 L 237.75 52.519531 L 237.75 61.410156 C 237.75 77.199219 250.59375 90.042969 266.382812 90.042969 C 282.171875 90.042969 295.015625 77.199219 295.015625 61.410156 L 295.015625 52.519531 L 331.222656 52.519531 L 331.222656 61.410156 C 331.222656 77.199219 344.066406 90.042969 359.855469 90.042969 C 375.644531 90.042969 388.488281 77.199219 388.488281 61.410156 L 388.488281 52.519531 L 421.144531 52.519531 C 422.605469 52.519531 423.792969 53.710938 423.792969 55.171875 L 423.792969 121.851562 L 15.5 121.851562 Z M 15.5 55.171875 " style=" stroke:none;fill-rule:nonzero;fill:rgb(0%,0%,0%);fill-opacity:1;" />
<path d="M 328.234375 303.8125 L 328.234375 234.527344 C 328.234375 197.316406 306 183.511719 277.683594 183.511719 C 249.367188 183.511719 227.371094 197.316406 227.371094 234.527344 L 227.371094 304.96875 C 227.371094 342.175781 249.371094 355.984375 277.683594 355.984375 C 283.980469 355.984375 289.976562 355.296875 295.492188 353.824219 C 301.285156 334.039062 312.84375 316.71875 328.234375 303.8125 Z M 247.027344 304.96875 L 247.027344 234.527344 C 247.027344 211.828125 258.496094 201.296875 277.683594 201.296875 C 296.875 201.296875 308.574219 211.828125 308.574219 234.527344 L 308.574219 304.96875 C 308.574219 327.667969 296.875 338.199219 277.683594 338.199219 C 258.496094 338.199219 247.027344 327.667969 247.027344 304.96875 Z M 247.027344 304.96875 " style=" stroke:none;fill-rule:nonzero;fill:rgb(0%,0%,0%);fill-opacity:1;" />
</g>
</svg>